<?xml version="1.0" encoding="iso-8859-1"?>
<!-- Generator: Adobe Illustrator 16.0.0, SVG Export Plug-In . SVG Version: 6.00 Build 0)  -->
<!DOCTYPE svg PUBLIC "-//W3C//DTD SVG 1.1//EN" "http://www.w3.org/Graphics/SVG/1.1/DTD/svg11.dtd">
<svg version="1.1" id="Capa_1" xmlns="http://www.w3.org/2000/svg" xmlns:xlink="http://www.w3.org/1999/xlink" x="0px" y="0px"
	 width="75px" height="57px" viewBox="0 0 556.681 556.681" style="enable-background:new 0 0 556.681 556.681;fill:#fff;"
	 xml:space="preserve">
<g>
	<g>
		<path d="M484.576,340.148c41.41,1.099,72.105-14.632,72.105-45.424c0-22.714-17.531-39.308-45.174-39.308
			c-37.069,0-56.353,28.497-64.064,58.921c-4.499,17.785-11.354,41.138-25.067,41.138c-8.571,0-10.93-8.569-10.93-19.282
			c0-8.571,0-24.212,0-35.781c0-29.354-14.354-44.995-36.852-44.995c-19.927,0-35.341,11.997-44.123,26.566l-0.856-24.638
			c-7.499,0-28.923,0-28.923,0s-3.206,98.13-35.571,98.13c-11.142,0-14.784-12.655-14.784-26.998v-71.134h-28.278
			c-14.999,16.927-35.122,22.066-50.122,22.066c-26.997,0-47.78-18.852-47.78-51.636c0-16.068,6.214-24.426,14.998-24.426
			c8.356,0,13.927,7.499,13.927,22.712c0,8.649-2.316,18.13-4.025,23.737c0,0,8.32,14.512,31.065,10.059
			c4.831-10.723,7.455-24.611,7.455-36.793c0-32.784-16.712-51.851-47.352-51.851c-31.496,0-49.924,24.212-49.924,56.138
			c0,31.627,14.786,58.776,39.165,71.145c-10.25,20.508-23.297,38.569-36.899,52.181c-24.682-29.839-46.998-69.643-56.153-147.327H0
			c16.823,129.375,66.962,170.57,80.218,178.479c7.499,4.503,13.958,4.286,20.814,0.428c10.765-6.118,43.083-38.433,60.997-76.286
			c16.074-0.041,39.067-3.837,53.816-14.99v36.857c0,41.566,15.854,57.637,40.493,57.637c19.766,0,35.023-15.409,42.422-32.694
			v30.336h34.068V347.33c0-40.923,13.697-60.85,30.84-60.85c9.641,0,13.713,6.429,13.713,22.712c0,9.642,0,23.14,0,32.566
			c0,27.639,14.568,43.711,36.423,43.711c17.959,0,34.076-14.008,40.42-31.723c10.828,22.389,35.758,31.725,57.496,31.725
			c16.426,0,29.813-3.41,40.245-9.623v-31.063c-8.825,6.009-19.715,11.118-35.529,11.118
			C501.352,355.903,489.986,351.124,484.576,340.148z M511.291,285.41c9.433,0,13.895,5.027,13.895,11.239
			c0,8.235-7.669,22.19-43.971,22.604C482.647,299.332,495.729,285.41,511.291,285.41z"/>
		<path d="M235.058,239.559c13.068,0,22.066-9.854,22.066-22.498c0-12.64-8.998-22.281-22.066-22.281
			c-13.07,0-21.855,8.785-21.855,22.281C213.203,230.56,221.988,239.559,235.058,239.559z"/>
	</g>
</g>
<g>
</g>
<g>
</g>
<g>
</g>
<g>
</g>
<g>
</g>
<g>
</g>
<g>
</g>
<g>
</g>
<g>
</g>
<g>
</g>
<g>
</g>
<g>
</g>
<g>
</g>
<g>
</g>
<g>
</g>
</svg>
